G04 #@! TF.GenerationSoftware,KiCad,Pcbnew,(5.1.4-0-10_14)*
G04 #@! TF.CreationDate,2020-01-17T15:41:54-05:00*
G04 #@! TF.ProjectId,rt65b-breakout,72743635-622d-4627-9265-616b6f75742e,rev?*
G04 #@! TF.SameCoordinates,Original*
G04 #@! TF.FileFunction,Legend,Top*
G04 #@! TF.FilePolarity,Positive*
%FSLAX46Y46*%
G04 Gerber Fmt 4.6, Leading zero omitted, Abs format (unit mm)*
G04 Created by KiCad (PCBNEW (5.1.4-0-10_14)) date 2020-01-17 15:41:54*
%MOMM*%
%LPD*%
G04 APERTURE LIST*
%ADD10C,0.150000*%
G04 APERTURE END LIST*
D10*
X122335595Y-71627380D02*
X122335595Y-70627380D01*
X122668928Y-71341666D01*
X123002261Y-70627380D01*
X123002261Y-71627380D01*
X123430833Y-71341666D02*
X123907023Y-71341666D01*
X123335595Y-71627380D02*
X123668928Y-70627380D01*
X124002261Y-71627380D01*
X124335595Y-71627380D02*
X124335595Y-70627380D01*
X124811785Y-71627380D02*
X124811785Y-70627380D01*
X125383214Y-71627380D01*
X125383214Y-70627380D01*
X125811785Y-71579761D02*
X125954642Y-71627380D01*
X126192738Y-71627380D01*
X126287976Y-71579761D01*
X126335595Y-71532142D01*
X126383214Y-71436904D01*
X126383214Y-71341666D01*
X126335595Y-71246428D01*
X126287976Y-71198809D01*
X126192738Y-71151190D01*
X126002261Y-71103571D01*
X125907023Y-71055952D01*
X125859404Y-71008333D01*
X125811785Y-70913095D01*
X125811785Y-70817857D01*
X125859404Y-70722619D01*
X125907023Y-70675000D01*
X126002261Y-70627380D01*
X126240357Y-70627380D01*
X126383214Y-70675000D01*
X127430833Y-70627380D02*
X127764166Y-71627380D01*
X128097500Y-70627380D01*
X128621309Y-70627380D02*
X128811785Y-70627380D01*
X128907023Y-70675000D01*
X129002261Y-70770238D01*
X129049880Y-70960714D01*
X129049880Y-71294047D01*
X129002261Y-71484523D01*
X128907023Y-71579761D01*
X128811785Y-71627380D01*
X128621309Y-71627380D01*
X128526071Y-71579761D01*
X128430833Y-71484523D01*
X128383214Y-71294047D01*
X128383214Y-70960714D01*
X128430833Y-70770238D01*
X128526071Y-70675000D01*
X128621309Y-70627380D01*
X129954642Y-71627380D02*
X129478452Y-71627380D01*
X129478452Y-70627380D01*
X130145119Y-70627380D02*
X130716547Y-70627380D01*
X130430833Y-71627380D02*
X130430833Y-70627380D01*
X131002261Y-71341666D02*
X131478452Y-71341666D01*
X130907023Y-71627380D02*
X131240357Y-70627380D01*
X131573690Y-71627380D01*
X132430833Y-70675000D02*
X132335595Y-70627380D01*
X132192738Y-70627380D01*
X132049880Y-70675000D01*
X131954642Y-70770238D01*
X131907023Y-70865476D01*
X131859404Y-71055952D01*
X131859404Y-71198809D01*
X131907023Y-71389285D01*
X131954642Y-71484523D01*
X132049880Y-71579761D01*
X132192738Y-71627380D01*
X132287976Y-71627380D01*
X132430833Y-71579761D01*
X132478452Y-71532142D01*
X132478452Y-71198809D01*
X132287976Y-71198809D01*
X132907023Y-71103571D02*
X133240357Y-71103571D01*
X133383214Y-71627380D02*
X132907023Y-71627380D01*
X132907023Y-70627380D01*
X133383214Y-70627380D01*
X122335595Y-72277380D02*
X122335595Y-73086904D01*
X122383214Y-73182142D01*
X122430833Y-73229761D01*
X122526071Y-73277380D01*
X122716547Y-73277380D01*
X122811785Y-73229761D01*
X122859404Y-73182142D01*
X122907023Y-73086904D01*
X122907023Y-72277380D01*
X123335595Y-73229761D02*
X123478452Y-73277380D01*
X123716547Y-73277380D01*
X123811785Y-73229761D01*
X123859404Y-73182142D01*
X123907023Y-73086904D01*
X123907023Y-72991666D01*
X123859404Y-72896428D01*
X123811785Y-72848809D01*
X123716547Y-72801190D01*
X123526071Y-72753571D01*
X123430833Y-72705952D01*
X123383214Y-72658333D01*
X123335595Y-72563095D01*
X123335595Y-72467857D01*
X123383214Y-72372619D01*
X123430833Y-72325000D01*
X123526071Y-72277380D01*
X123764166Y-72277380D01*
X123907023Y-72325000D01*
X124335595Y-72753571D02*
X124668928Y-72753571D01*
X124811785Y-73277380D02*
X124335595Y-73277380D01*
X124335595Y-72277380D01*
X124811785Y-72277380D01*
X126002261Y-72753571D02*
X126335595Y-72753571D01*
X126478452Y-73277380D02*
X126002261Y-73277380D01*
X126002261Y-72277380D01*
X126478452Y-72277380D01*
X126811785Y-72277380D02*
X127478452Y-73277380D01*
X127478452Y-72277380D02*
X126811785Y-73277380D01*
X127716547Y-72277380D02*
X128287976Y-72277380D01*
X128002261Y-73277380D02*
X128002261Y-72277380D01*
X129192738Y-73277380D02*
X128859404Y-72801190D01*
X128621309Y-73277380D02*
X128621309Y-72277380D01*
X129002261Y-72277380D01*
X129097500Y-72325000D01*
X129145119Y-72372619D01*
X129192738Y-72467857D01*
X129192738Y-72610714D01*
X129145119Y-72705952D01*
X129097500Y-72753571D01*
X129002261Y-72801190D01*
X128621309Y-72801190D01*
X129621309Y-72753571D02*
X129954642Y-72753571D01*
X130097500Y-73277380D02*
X129621309Y-73277380D01*
X129621309Y-72277380D01*
X130097500Y-72277380D01*
X130526071Y-73277380D02*
X130526071Y-72277380D01*
X130859404Y-72991666D01*
X131192738Y-72277380D01*
X131192738Y-73277380D01*
X131668928Y-72753571D02*
X132002261Y-72753571D01*
X132145119Y-73277380D02*
X131668928Y-73277380D01*
X131668928Y-72277380D01*
X132145119Y-72277380D01*
X133907023Y-73182142D02*
X133859404Y-73229761D01*
X133716547Y-73277380D01*
X133621309Y-73277380D01*
X133478452Y-73229761D01*
X133383214Y-73134523D01*
X133335595Y-73039285D01*
X133287976Y-72848809D01*
X133287976Y-72705952D01*
X133335595Y-72515476D01*
X133383214Y-72420238D01*
X133478452Y-72325000D01*
X133621309Y-72277380D01*
X133716547Y-72277380D01*
X133859404Y-72325000D01*
X133907023Y-72372619D01*
X134287976Y-72991666D02*
X134764166Y-72991666D01*
X134192738Y-73277380D02*
X134526071Y-72277380D01*
X134859404Y-73277380D01*
X135192738Y-72277380D02*
X135192738Y-73086904D01*
X135240357Y-73182142D01*
X135287976Y-73229761D01*
X135383214Y-73277380D01*
X135573690Y-73277380D01*
X135668928Y-73229761D01*
X135716547Y-73182142D01*
X135764166Y-73086904D01*
X135764166Y-72277380D01*
X136097500Y-72277380D02*
X136668928Y-72277380D01*
X136383214Y-73277380D02*
X136383214Y-72277380D01*
X137002261Y-73277380D02*
X137002261Y-72277380D01*
X137668928Y-72277380D02*
X137859404Y-72277380D01*
X137954642Y-72325000D01*
X138049880Y-72420238D01*
X138097500Y-72610714D01*
X138097500Y-72944047D01*
X138049880Y-73134523D01*
X137954642Y-73229761D01*
X137859404Y-73277380D01*
X137668928Y-73277380D01*
X137573690Y-73229761D01*
X137478452Y-73134523D01*
X137430833Y-72944047D01*
X137430833Y-72610714D01*
X137478452Y-72420238D01*
X137573690Y-72325000D01*
X137668928Y-72277380D01*
X138526071Y-73277380D02*
X138526071Y-72277380D01*
X139097500Y-73277380D01*
X139097500Y-72277380D01*
X170461904Y-63300000D02*
X170366666Y-63252380D01*
X170223809Y-63252380D01*
X170080952Y-63300000D01*
X169985714Y-63395238D01*
X169938095Y-63490476D01*
X169890476Y-63680952D01*
X169890476Y-63823809D01*
X169938095Y-64014285D01*
X169985714Y-64109523D01*
X170080952Y-64204761D01*
X170223809Y-64252380D01*
X170319047Y-64252380D01*
X170461904Y-64204761D01*
X170509523Y-64157142D01*
X170509523Y-63823809D01*
X170319047Y-63823809D01*
X184985714Y-68728571D02*
X185319047Y-68728571D01*
X185461904Y-69252380D02*
X184985714Y-69252380D01*
X184985714Y-68252380D01*
X185461904Y-68252380D01*
X175785714Y-69071428D02*
X176547619Y-69071428D01*
X177547619Y-69452380D02*
X176976190Y-69452380D01*
X177261904Y-69452380D02*
X177261904Y-68452380D01*
X177166666Y-68595238D01*
X177071428Y-68690476D01*
X176976190Y-68738095D01*
X177928571Y-68547619D02*
X177976190Y-68500000D01*
X178071428Y-68452380D01*
X178309523Y-68452380D01*
X178404761Y-68500000D01*
X178452380Y-68547619D01*
X178500000Y-68642857D01*
X178500000Y-68738095D01*
X178452380Y-68880952D01*
X177880952Y-69452380D01*
X178500000Y-69452380D01*
X178833333Y-68785714D02*
X179071428Y-69452380D01*
X179309523Y-68785714D01*
X185228571Y-64452380D02*
X184657142Y-64452380D01*
X184942857Y-64452380D02*
X184942857Y-63452380D01*
X184847619Y-63595238D01*
X184752380Y-63690476D01*
X184657142Y-63738095D01*
X185609523Y-63547619D02*
X185657142Y-63500000D01*
X185752380Y-63452380D01*
X185990476Y-63452380D01*
X186085714Y-63500000D01*
X186133333Y-63547619D01*
X186180952Y-63642857D01*
X186180952Y-63738095D01*
X186133333Y-63880952D01*
X185561904Y-64452380D01*
X186180952Y-64452380D01*
X186514285Y-63785714D02*
X186752380Y-64452380D01*
X186990476Y-63785714D01*
X172657142Y-65952380D02*
X172180952Y-65952380D01*
X172133333Y-66428571D01*
X172180952Y-66380952D01*
X172276190Y-66333333D01*
X172514285Y-66333333D01*
X172609523Y-66380952D01*
X172657142Y-66428571D01*
X172704761Y-66523809D01*
X172704761Y-66761904D01*
X172657142Y-66857142D01*
X172609523Y-66904761D01*
X172514285Y-66952380D01*
X172276190Y-66952380D01*
X172180952Y-66904761D01*
X172133333Y-66857142D01*
X173038095Y-66285714D02*
X173276190Y-66952380D01*
X173514285Y-66285714D01*
X116420666Y-67753380D02*
X116087333Y-67277190D01*
X115849238Y-67753380D02*
X115849238Y-66753380D01*
X116230190Y-66753380D01*
X116325428Y-66801000D01*
X116373047Y-66848619D01*
X116420666Y-66943857D01*
X116420666Y-67086714D01*
X116373047Y-67181952D01*
X116325428Y-67229571D01*
X116230190Y-67277190D01*
X115849238Y-67277190D01*
X116849238Y-67229571D02*
X117182571Y-67229571D01*
X117325428Y-67753380D02*
X116849238Y-67753380D01*
X116849238Y-66753380D01*
X117325428Y-66753380D01*
X118087333Y-67229571D02*
X117754000Y-67229571D01*
X117754000Y-67753380D02*
X117754000Y-66753380D01*
X118230190Y-66753380D01*
X118754000Y-66753380D02*
X118754000Y-66991476D01*
X118515904Y-66896238D02*
X118754000Y-66991476D01*
X118992095Y-66896238D01*
X118611142Y-67181952D02*
X118754000Y-66991476D01*
X118896857Y-67181952D01*
X119515904Y-66753380D02*
X119515904Y-66991476D01*
X119277809Y-66896238D02*
X119515904Y-66991476D01*
X119754000Y-66896238D01*
X119373047Y-67181952D02*
X119515904Y-66991476D01*
X119658761Y-67181952D01*
X137214285Y-48702380D02*
X137214285Y-47702380D01*
X137785714Y-48702380D01*
X137785714Y-47702380D01*
X138833333Y-48607142D02*
X138785714Y-48654761D01*
X138642857Y-48702380D01*
X138547619Y-48702380D01*
X138404761Y-48654761D01*
X138309523Y-48559523D01*
X138261904Y-48464285D01*
X138214285Y-48273809D01*
X138214285Y-48130952D01*
X138261904Y-47940476D01*
X138309523Y-47845238D01*
X138404761Y-47750000D01*
X138547619Y-47702380D01*
X138642857Y-47702380D01*
X138785714Y-47750000D01*
X138833333Y-47797619D01*
X149035714Y-65428571D02*
X149369047Y-65428571D01*
X149511904Y-65952380D02*
X149035714Y-65952380D01*
X149035714Y-64952380D01*
X149511904Y-64952380D01*
X120964285Y-66452380D02*
X120964285Y-65452380D01*
X121535714Y-66452380D01*
X121535714Y-65452380D01*
X114059523Y-66452380D02*
X113583333Y-66452380D01*
X113583333Y-65452380D01*
X170809523Y-47702380D02*
X170333333Y-47702380D01*
X170285714Y-48178571D01*
X170333333Y-48130952D01*
X170428571Y-48083333D01*
X170666666Y-48083333D01*
X170761904Y-48130952D01*
X170809523Y-48178571D01*
X170857142Y-48273809D01*
X170857142Y-48511904D01*
X170809523Y-48607142D01*
X170761904Y-48654761D01*
X170666666Y-48702380D01*
X170428571Y-48702380D01*
X170333333Y-48654761D01*
X170285714Y-48607142D01*
X171142857Y-47702380D02*
X171476190Y-48702380D01*
X171809523Y-47702380D01*
X112345238Y-48702380D02*
X111869047Y-48702380D01*
X111869047Y-47702380D01*
X112678571Y-48702380D02*
X112678571Y-47702380D01*
X113154761Y-48702380D02*
X113154761Y-47702380D01*
X113726190Y-48702380D01*
X113726190Y-47702380D01*
X114202380Y-48178571D02*
X114535714Y-48178571D01*
X114678571Y-48702380D02*
X114202380Y-48702380D01*
X114202380Y-47702380D01*
X114678571Y-47702380D01*
X127702380Y-48178571D02*
X128035714Y-48178571D01*
X128178571Y-48702380D02*
X127702380Y-48702380D01*
X127702380Y-47702380D01*
X128178571Y-47702380D01*
X128559523Y-48416666D02*
X129035714Y-48416666D01*
X128464285Y-48702380D02*
X128797619Y-47702380D01*
X129130952Y-48702380D01*
X130035714Y-48702380D02*
X129702380Y-48226190D01*
X129464285Y-48702380D02*
X129464285Y-47702380D01*
X129845238Y-47702380D01*
X129940476Y-47750000D01*
X129988095Y-47797619D01*
X130035714Y-47892857D01*
X130035714Y-48035714D01*
X129988095Y-48130952D01*
X129940476Y-48178571D01*
X129845238Y-48226190D01*
X129464285Y-48226190D01*
X130321428Y-47702380D02*
X130892857Y-47702380D01*
X130607142Y-48702380D02*
X130607142Y-47702380D01*
X131226190Y-48702380D02*
X131226190Y-47702380D01*
X131226190Y-48178571D02*
X131797619Y-48178571D01*
X131797619Y-48702380D02*
X131797619Y-47702380D01*
X119857142Y-48702380D02*
X119857142Y-47702380D01*
X120428571Y-48702380D01*
X120428571Y-47702380D01*
X120904761Y-48178571D02*
X121238095Y-48178571D01*
X121380952Y-48702380D02*
X120904761Y-48702380D01*
X120904761Y-47702380D01*
X121380952Y-47702380D01*
X121809523Y-47702380D02*
X121809523Y-48511904D01*
X121857142Y-48607142D01*
X121904761Y-48654761D01*
X122000000Y-48702380D01*
X122190476Y-48702380D01*
X122285714Y-48654761D01*
X122333333Y-48607142D01*
X122380952Y-48511904D01*
X122380952Y-47702380D01*
X122714285Y-47702380D02*
X123285714Y-47702380D01*
X123000000Y-48702380D02*
X123000000Y-47702380D01*
X161964285Y-48607142D02*
X161916666Y-48654761D01*
X161773809Y-48702380D01*
X161678571Y-48702380D01*
X161535714Y-48654761D01*
X161440476Y-48559523D01*
X161392857Y-48464285D01*
X161345238Y-48273809D01*
X161345238Y-48130952D01*
X161392857Y-47940476D01*
X161440476Y-47845238D01*
X161535714Y-47750000D01*
X161678571Y-47702380D01*
X161773809Y-47702380D01*
X161916666Y-47750000D01*
X161964285Y-47797619D01*
X162583333Y-47702380D02*
X162773809Y-47702380D01*
X162869047Y-47750000D01*
X162964285Y-47845238D01*
X163011904Y-48035714D01*
X163011904Y-48369047D01*
X162964285Y-48559523D01*
X162869047Y-48654761D01*
X162773809Y-48702380D01*
X162583333Y-48702380D01*
X162488095Y-48654761D01*
X162392857Y-48559523D01*
X162345238Y-48369047D01*
X162345238Y-48035714D01*
X162392857Y-47845238D01*
X162488095Y-47750000D01*
X162583333Y-47702380D01*
X163440476Y-48702380D02*
X163440476Y-47702380D01*
X163773809Y-48416666D01*
X164107142Y-47702380D01*
X164107142Y-48702380D01*
X144488095Y-48321428D02*
X145250000Y-48321428D01*
X146250000Y-48702380D02*
X145678571Y-48702380D01*
X145964285Y-48702380D02*
X145964285Y-47702380D01*
X145869047Y-47845238D01*
X145773809Y-47940476D01*
X145678571Y-47988095D01*
X146630952Y-47797619D02*
X146678571Y-47750000D01*
X146773809Y-47702380D01*
X147011904Y-47702380D01*
X147107142Y-47750000D01*
X147154761Y-47797619D01*
X147202380Y-47892857D01*
X147202380Y-47988095D01*
X147154761Y-48130952D01*
X146583333Y-48702380D01*
X147202380Y-48702380D01*
X147488095Y-47702380D02*
X147821428Y-48702380D01*
X148154761Y-47702380D01*
X153880952Y-48702380D02*
X153309523Y-48702380D01*
X153595238Y-48702380D02*
X153595238Y-47702380D01*
X153500000Y-47845238D01*
X153404761Y-47940476D01*
X153309523Y-47988095D01*
X154261904Y-47797619D02*
X154309523Y-47750000D01*
X154404761Y-47702380D01*
X154642857Y-47702380D01*
X154738095Y-47750000D01*
X154785714Y-47797619D01*
X154833333Y-47892857D01*
X154833333Y-47988095D01*
X154785714Y-48130952D01*
X154214285Y-48702380D01*
X154833333Y-48702380D01*
X155119047Y-47702380D02*
X155452380Y-48702380D01*
X155785714Y-47702380D01*
M02*
