M48
METRIC,TZ
T1C0.500
T2C1.500
T3C3.000
%
G90
G05
T1
X152250Y-44250
X152909Y-42659
X152909Y-45841
X154500Y-42000
X154500Y-46500
X156091Y-42659
X156091Y-45841
X156750Y-44250
X160500Y-44250
X161159Y-42659
X161159Y-45841
X144000Y-44250
X144659Y-45841
X146250Y-46500
X147841Y-45841
X148500Y-44250
X162750Y-42000
X164341Y-42659
X144659Y-42659
X146250Y-42000
X147841Y-42659
X162750Y-46500
X164341Y-45841
X111000Y-44250
X111659Y-42659
X111659Y-45841
X113250Y-42000
X113250Y-46500
X114841Y-42659
X114841Y-45841
X115500Y-44250
X165000Y-44250
X127500Y-44250
X128159Y-42659
X128159Y-45841
X129750Y-42000
X168750Y-44250
X169409Y-42659
X129750Y-46500
X131341Y-42659
X131341Y-45841
X123750Y-44250
X119250Y-44250
X119909Y-42659
X119909Y-45841
X121500Y-42000
X121500Y-46500
X123091Y-42659
X123091Y-45841
X169409Y-45841
X171000Y-46500
X172591Y-45841
X173250Y-44250
X132000Y-44250
X171000Y-42000
X172591Y-42659
T2
X170250Y-61500
X170250Y-66500
X172750Y-64000
X172750Y-76500
X177750Y-66500
X177750Y-74000
X182750Y-64000
X182750Y-76500
X149260Y-62550
X113700Y-62550
X121320Y-62550
X185250Y-61500
X185250Y-66500
T3
X154500Y-44250
X146250Y-44250
X171000Y-44250
X113250Y-44250
X162750Y-44250
X129750Y-44250
X121500Y-44250
T0
M30
