G04 #@! TF.GenerationSoftware,KiCad,Pcbnew,(5.1.4-0-10_14)*
G04 #@! TF.CreationDate,2020-01-18T08:01:12-05:00*
G04 #@! TF.ProjectId,rt65b-breakout,72743635-622d-4627-9265-616b6f75742e,rev?*
G04 #@! TF.SameCoordinates,Original*
G04 #@! TF.FileFunction,Copper,L2,Bot*
G04 #@! TF.FilePolarity,Positive*
%FSLAX46Y46*%
G04 Gerber Fmt 4.6, Leading zero omitted, Abs format (unit mm)*
G04 Created by KiCad (PCBNEW (5.1.4-0-10_14)) date 2020-01-18 08:01:12*
%MOMM*%
%LPD*%
G04 APERTURE LIST*
%ADD10C,0.381000*%
%ADD11C,2.750000*%
%ADD12C,2.500000*%
%ADD13C,0.800000*%
%ADD14R,6.000000X6.000000*%
%ADD15C,3.000000*%
%ADD16C,6.000000*%
G04 APERTURE END LIST*
D10*
X127927000Y-71924000D02*
X128054000Y-71416000D01*
X126784000Y-69638000D02*
X127927000Y-71924000D01*
X128181000Y-69638000D02*
X126784000Y-69638000D01*
X126657000Y-67352000D02*
X128181000Y-69638000D01*
X126403000Y-67733000D02*
X126530000Y-67225000D01*
X125641000Y-67225000D02*
X126403000Y-67733000D01*
X127419000Y-69257000D02*
X125641000Y-67225000D01*
X126149000Y-69257000D02*
X127419000Y-69257000D01*
X127927000Y-72051000D02*
X126149000Y-69257000D01*
X127419000Y-71797000D02*
X127927000Y-72051000D01*
X128181000Y-72432000D02*
X127419000Y-71797000D01*
X128054000Y-71416000D02*
X128181000Y-72432000D01*
X127800000Y-69511000D02*
X126530000Y-69511000D01*
X126403000Y-67606000D02*
X127800000Y-69511000D01*
D11*
X185250000Y-61500000D03*
X170250000Y-61500000D03*
X182750000Y-64000000D03*
X172750000Y-64000000D03*
X185250000Y-66500000D03*
X170250000Y-66500000D03*
X177750000Y-66500000D03*
D12*
X182750000Y-76500000D03*
X172750000Y-76500000D03*
X177750000Y-74000000D03*
X149260000Y-62550000D03*
X121320000Y-62550000D03*
X113700000Y-62550000D03*
D13*
X172590990Y-42659010D03*
X171000000Y-42000000D03*
X169409010Y-42659010D03*
X168750000Y-44250000D03*
X169409010Y-45840990D03*
X171000000Y-46500000D03*
X172590990Y-45840990D03*
X173250000Y-44250000D03*
D14*
X171000000Y-44250000D03*
X113250000Y-44250000D03*
D13*
X115500000Y-44250000D03*
X114840990Y-45840990D03*
X113250000Y-46500000D03*
X111659010Y-45840990D03*
X111000000Y-44250000D03*
X111659010Y-42659010D03*
X113250000Y-42000000D03*
X114840990Y-42659010D03*
D14*
X129750000Y-44250000D03*
D13*
X132000000Y-44250000D03*
X131340990Y-45840990D03*
X129750000Y-46500000D03*
X128159010Y-45840990D03*
X127500000Y-44250000D03*
X128159010Y-42659010D03*
X129750000Y-42000000D03*
X131340990Y-42659010D03*
D14*
X121500000Y-44250000D03*
D13*
X123750000Y-44250000D03*
X123090990Y-45840990D03*
X121500000Y-46500000D03*
X119909010Y-45840990D03*
X119250000Y-44250000D03*
X119909010Y-42659010D03*
X121500000Y-42000000D03*
X123090990Y-42659010D03*
D14*
X162750000Y-44250000D03*
D13*
X165000000Y-44250000D03*
X164340990Y-45840990D03*
X162750000Y-46500000D03*
X161159010Y-45840990D03*
X160500000Y-44250000D03*
X161159010Y-42659010D03*
X162750000Y-42000000D03*
X164340990Y-42659010D03*
D14*
X146250000Y-44250000D03*
D13*
X148500000Y-44250000D03*
X147840990Y-45840990D03*
X146250000Y-46500000D03*
X144659010Y-45840990D03*
X144000000Y-44250000D03*
X144659010Y-42659010D03*
X146250000Y-42000000D03*
X147840990Y-42659010D03*
D14*
X154500000Y-44250000D03*
D13*
X156750000Y-44250000D03*
X156090990Y-45840990D03*
X154500000Y-46500000D03*
X152909010Y-45840990D03*
X152250000Y-44250000D03*
X152909010Y-42659010D03*
X154500000Y-42000000D03*
X156090990Y-42659010D03*
D15*
X149260000Y-62550000D02*
X149260000Y-69760000D01*
X156000000Y-76500000D02*
X172750000Y-76500000D01*
X149260000Y-69760000D02*
X156000000Y-76500000D01*
X175250000Y-74000000D02*
X172750000Y-76500000D01*
X177750000Y-74000000D02*
X175250000Y-74000000D01*
X180250000Y-74000000D02*
X182750000Y-76500000D01*
X177750000Y-74000000D02*
X180250000Y-74000000D01*
X186200000Y-67450000D02*
X185250000Y-66500000D01*
X186200000Y-73050000D02*
X186200000Y-67450000D01*
X182750000Y-76500000D02*
X186200000Y-73050000D01*
D16*
X129750000Y-59950000D02*
X129750000Y-44250000D01*
X132350000Y-62550000D02*
X129750000Y-59950000D01*
X149260000Y-62550000D02*
X132350000Y-62550000D01*
D15*
X185250000Y-61500000D02*
X182750000Y-64000000D01*
X167400000Y-70200000D02*
X154500000Y-57300000D01*
X181800000Y-68600000D02*
X180200000Y-70200000D01*
X181800000Y-64950000D02*
X181800000Y-68600000D01*
X154500000Y-57300000D02*
X154500000Y-44250000D01*
X180200000Y-70200000D02*
X167400000Y-70200000D01*
X182750000Y-64000000D02*
X181800000Y-64950000D01*
X162750000Y-54000000D02*
X162750000Y-44250000D01*
X170250000Y-61500000D02*
X162750000Y-54000000D01*
X173800000Y-62950000D02*
X171624999Y-65125001D01*
X173800000Y-57400000D02*
X173800000Y-62950000D01*
X171000000Y-54600000D02*
X173800000Y-57400000D01*
X171624999Y-65125001D02*
X170250000Y-66500000D01*
X171000000Y-44250000D02*
X171000000Y-54600000D01*
D16*
X113250000Y-62100000D02*
X113274990Y-62124990D01*
X113250000Y-44250000D02*
X113250000Y-62100000D01*
X121500000Y-62370000D02*
X121475010Y-62394990D01*
X121500000Y-44250000D02*
X121500000Y-62370000D01*
M02*
