G04 #@! TF.GenerationSoftware,KiCad,Pcbnew,(5.1.4-0-10_14)*
G04 #@! TF.CreationDate,2020-01-18T08:01:12-05:00*
G04 #@! TF.ProjectId,rt65b-breakout,72743635-622d-4627-9265-616b6f75742e,rev?*
G04 #@! TF.SameCoordinates,Original*
G04 #@! TF.FileFunction,Profile,NP*
%FSLAX46Y46*%
G04 Gerber Fmt 4.6, Leading zero omitted, Abs format (unit mm)*
G04 Created by KiCad (PCBNEW (5.1.4-0-10_14)) date 2020-01-18 08:01:12*
%MOMM*%
%LPD*%
G04 APERTURE LIST*
%ADD10C,0.050000*%
G04 APERTURE END LIST*
D10*
X102000000Y-79000000D02*
G75*
G02X99000000Y-76000000I0J3000000D01*
G01*
X192250000Y-76000000D02*
G75*
G02X189250000Y-79000000I-3000000J0D01*
G01*
X116500000Y-64000000D02*
X116500000Y-52000000D01*
X118250000Y-64000000D02*
X116500000Y-64000000D01*
X118250000Y-52000000D02*
X118250000Y-64000000D01*
X126500000Y-64000000D02*
X126500000Y-52000000D01*
X124750000Y-64000000D02*
X126500000Y-64000000D01*
X124750000Y-52000000D02*
X124750000Y-64000000D01*
X102000000Y-79000000D02*
X189250000Y-79000000D01*
X192250000Y-52000000D02*
X192250000Y-76000000D01*
X174250000Y-52000000D02*
X192250000Y-52000000D01*
X166000000Y-52000000D02*
X167750000Y-52000000D01*
X174250000Y-41000000D02*
X174250000Y-52000000D01*
X167750000Y-52000000D02*
X167750000Y-41000000D01*
X167750000Y-41000000D02*
X174250000Y-41000000D01*
X99000000Y-76000000D02*
X99000000Y-52000000D01*
X110000000Y-52000000D02*
X99000000Y-52000000D01*
X157750000Y-52000000D02*
X159500000Y-52000000D01*
X149500000Y-52000000D02*
X151250000Y-52000000D01*
X141250000Y-52000000D02*
X143000000Y-52000000D01*
X133000000Y-52000000D02*
X134750000Y-52000000D01*
X159500000Y-41000000D02*
X166000000Y-41000000D01*
X166000000Y-41000000D02*
X166000000Y-52000000D01*
X159500000Y-52000000D02*
X159500000Y-41000000D01*
X151250000Y-41000000D02*
X157750000Y-41000000D01*
X157750000Y-41000000D02*
X157750000Y-52000000D01*
X151250000Y-52000000D02*
X151250000Y-41000000D01*
X143000000Y-41000000D02*
X149500000Y-41000000D01*
X149500000Y-41000000D02*
X149500000Y-52000000D01*
X143000000Y-52000000D02*
X143000000Y-41000000D01*
X134750000Y-41000000D02*
X141250000Y-41000000D01*
X141250000Y-41000000D02*
X141250000Y-52000000D01*
X134750000Y-52000000D02*
X134750000Y-41000000D01*
X126500000Y-41000000D02*
X133000000Y-41000000D01*
X133000000Y-41000000D02*
X133000000Y-52000000D01*
X126500000Y-52000000D02*
X126500000Y-41000000D01*
X118250000Y-41000000D02*
X124750000Y-41000000D01*
X124750000Y-41000000D02*
X124750000Y-52000000D01*
X118250000Y-52000000D02*
X118250000Y-41000000D01*
X116500000Y-41000000D02*
X116500000Y-52000000D01*
X110000000Y-41000000D02*
X116500000Y-41000000D01*
X110000000Y-52000000D02*
X110000000Y-41000000D01*
M02*
