G04 #@! TF.GenerationSoftware,KiCad,Pcbnew,(5.1.4-0-10_14)*
G04 #@! TF.CreationDate,2020-01-18T08:01:12-05:00*
G04 #@! TF.ProjectId,rt65b-breakout,72743635-622d-4627-9265-616b6f75742e,rev?*
G04 #@! TF.SameCoordinates,Original*
G04 #@! TF.FileFunction,Copper,L1,Top*
G04 #@! TF.FilePolarity,Positive*
%FSLAX46Y46*%
G04 Gerber Fmt 4.6, Leading zero omitted, Abs format (unit mm)*
G04 Created by KiCad (PCBNEW (5.1.4-0-10_14)) date 2020-01-18 08:01:12*
%MOMM*%
%LPD*%
G04 APERTURE LIST*
%ADD10C,0.381000*%
%ADD11C,2.750000*%
%ADD12C,2.500000*%
%ADD13C,0.800000*%
%ADD14R,6.000000X6.000000*%
%ADD15C,3.000000*%
%ADD16C,6.000000*%
%ADD17C,2.000000*%
G04 APERTURE END LIST*
D10*
X118770000Y-72762000D02*
X118389000Y-72762000D01*
X119151000Y-72762000D02*
X118770000Y-72762000D01*
X119659000Y-72508000D02*
X119151000Y-72762000D01*
X119913000Y-72381000D02*
X119659000Y-72508000D01*
X120040000Y-72000000D02*
X119913000Y-72381000D01*
X120040000Y-71619000D02*
X120040000Y-72000000D01*
X119913000Y-71238000D02*
X120040000Y-71619000D01*
X119659000Y-70730000D02*
X119913000Y-71238000D01*
X119405000Y-70349000D02*
X119659000Y-70730000D01*
X118897000Y-69841000D02*
X119405000Y-70349000D01*
X118262000Y-69587000D02*
X118897000Y-69841000D01*
X117627000Y-69460000D02*
X118262000Y-69587000D01*
X117119000Y-69460000D02*
X117627000Y-69460000D01*
X116484000Y-69714000D02*
X117119000Y-69460000D01*
X115849000Y-70095000D02*
X116484000Y-69714000D01*
X115341000Y-70603000D02*
X115849000Y-70095000D01*
X115087000Y-71238000D02*
X115341000Y-70603000D01*
X114960000Y-71746000D02*
X115087000Y-71238000D01*
X114960000Y-72000000D02*
X114960000Y-71746000D01*
X116357000Y-72762000D02*
X116738000Y-72762000D01*
X115722000Y-72635000D02*
X116357000Y-72762000D01*
X115214000Y-72508000D02*
X115722000Y-72635000D01*
X115087000Y-72254000D02*
X115214000Y-72508000D01*
X114960000Y-72000000D02*
X115087000Y-72254000D01*
X116484000Y-73524000D02*
X116484000Y-72762000D01*
X116484000Y-73905000D02*
X116484000Y-73524000D01*
X117627000Y-74540000D02*
X117246000Y-74540000D01*
X118135000Y-74413000D02*
X117627000Y-74540000D01*
X118516000Y-74286000D02*
X118135000Y-74413000D01*
X118643000Y-73905000D02*
X118516000Y-74286000D01*
X118643000Y-73524000D02*
X118643000Y-73905000D01*
X118643000Y-72762000D02*
X118643000Y-73524000D01*
X116865000Y-74413000D02*
X117246000Y-74540000D01*
X116611000Y-74159000D02*
X116865000Y-74413000D01*
X116484000Y-73905000D02*
X116611000Y-74159000D01*
X117246000Y-72381000D02*
X117500000Y-71619000D01*
X117754000Y-72381000D02*
X117246000Y-72381000D01*
X117500000Y-71619000D02*
X117754000Y-72381000D01*
X118799981Y-71619000D02*
G75*
G03X118799981Y-71619000I-283981J0D01*
G01*
X116767981Y-71619000D02*
G75*
G03X116767981Y-71619000I-283981J0D01*
G01*
X116992000Y-73651000D02*
X116992000Y-73143000D01*
X118135000Y-73651000D02*
X116992000Y-73651000D01*
X118135000Y-73143000D02*
X118135000Y-73651000D01*
X116992000Y-73143000D02*
X118135000Y-73143000D01*
X117627000Y-73270000D02*
X117627000Y-73524000D01*
X119786000Y-70349000D02*
X120421000Y-69841000D01*
X120421000Y-69841000D02*
X120421000Y-69333000D01*
X120421000Y-69841000D02*
X120929000Y-69714000D01*
X115849000Y-73143000D02*
X114833000Y-74032000D01*
X114833000Y-74032000D02*
X114452000Y-74032000D01*
X114833000Y-74032000D02*
X114833000Y-74540000D01*
X115087000Y-70349000D02*
X114579000Y-69968000D01*
X114579000Y-69968000D02*
X114579000Y-69587000D01*
X114579000Y-69968000D02*
X114198000Y-70095000D01*
X120167000Y-74032000D02*
X120421000Y-74032000D01*
X119278000Y-73143000D02*
X120167000Y-74032000D01*
X120167000Y-74413000D02*
X120294000Y-74413000D01*
X120167000Y-74032000D02*
X120167000Y-74413000D01*
D11*
X185250000Y-61500000D03*
X170250000Y-61500000D03*
X182750000Y-64000000D03*
X172750000Y-64000000D03*
X185250000Y-66500000D03*
X170250000Y-66500000D03*
X177750000Y-66500000D03*
D12*
X182750000Y-76500000D03*
X172750000Y-76500000D03*
X177750000Y-74000000D03*
X149260000Y-62550000D03*
X121320000Y-62550000D03*
X113700000Y-62550000D03*
D13*
X172590990Y-42659010D03*
X171000000Y-42000000D03*
X169409010Y-42659010D03*
X168750000Y-44250000D03*
X169409010Y-45840990D03*
X171000000Y-46500000D03*
X172590990Y-45840990D03*
X173250000Y-44250000D03*
D14*
X171000000Y-44250000D03*
X113250000Y-44250000D03*
D13*
X115500000Y-44250000D03*
X114840990Y-45840990D03*
X113250000Y-46500000D03*
X111659010Y-45840990D03*
X111000000Y-44250000D03*
X111659010Y-42659010D03*
X113250000Y-42000000D03*
X114840990Y-42659010D03*
D14*
X129750000Y-44250000D03*
D13*
X132000000Y-44250000D03*
X131340990Y-45840990D03*
X129750000Y-46500000D03*
X128159010Y-45840990D03*
X127500000Y-44250000D03*
X128159010Y-42659010D03*
X129750000Y-42000000D03*
X131340990Y-42659010D03*
D14*
X121500000Y-44250000D03*
D13*
X123750000Y-44250000D03*
X123090990Y-45840990D03*
X121500000Y-46500000D03*
X119909010Y-45840990D03*
X119250000Y-44250000D03*
X119909010Y-42659010D03*
X121500000Y-42000000D03*
X123090990Y-42659010D03*
D14*
X162750000Y-44250000D03*
D13*
X165000000Y-44250000D03*
X164340990Y-45840990D03*
X162750000Y-46500000D03*
X161159010Y-45840990D03*
X160500000Y-44250000D03*
X161159010Y-42659010D03*
X162750000Y-42000000D03*
X164340990Y-42659010D03*
D14*
X146250000Y-44250000D03*
D13*
X148500000Y-44250000D03*
X147840990Y-45840990D03*
X146250000Y-46500000D03*
X144659010Y-45840990D03*
X144000000Y-44250000D03*
X144659010Y-42659010D03*
X146250000Y-42000000D03*
X147840990Y-42659010D03*
D14*
X154500000Y-44250000D03*
D13*
X156750000Y-44250000D03*
X156090990Y-45840990D03*
X154500000Y-46500000D03*
X152909010Y-45840990D03*
X152250000Y-44250000D03*
X152909010Y-42659010D03*
X154500000Y-42000000D03*
X156090990Y-42659010D03*
D15*
X172750000Y-76500000D02*
X175250000Y-74000000D01*
X175250000Y-74000000D02*
X177750000Y-74000000D01*
X180250000Y-74000000D02*
X182750000Y-76500000D01*
X177750000Y-74000000D02*
X180250000Y-74000000D01*
X149260000Y-62550000D02*
X149260000Y-70010000D01*
X155750000Y-76500000D02*
X172750000Y-76500000D01*
X149260000Y-70010000D02*
X155750000Y-76500000D01*
D16*
X131900000Y-62500000D02*
X129750000Y-60350000D01*
X138939148Y-62500000D02*
X131900000Y-62500000D01*
X138989148Y-62550000D02*
X138939148Y-62500000D01*
X129750000Y-60350000D02*
X129750000Y-44250000D01*
X149260000Y-62550000D02*
X138989148Y-62550000D01*
D15*
X186000000Y-67250000D02*
X185250000Y-66500000D01*
X186000000Y-73250000D02*
X186000000Y-67250000D01*
X182750000Y-76500000D02*
X186000000Y-73250000D01*
D17*
X173500000Y-70750000D02*
X177750000Y-66500000D01*
X146250000Y-44250000D02*
X146250000Y-54750000D01*
X165750000Y-70750000D02*
X173500000Y-70750000D01*
X148000000Y-56500000D02*
X151500000Y-56500000D01*
X151500000Y-56500000D02*
X165750000Y-70750000D01*
X146250000Y-54750000D02*
X148000000Y-56500000D01*
D15*
X162750000Y-54000000D02*
X162750000Y-44250000D01*
X170250000Y-61500000D02*
X162750000Y-54000000D01*
X170250000Y-66500000D02*
X172750000Y-64000000D01*
X173750000Y-63000000D02*
X172750000Y-64000000D01*
X173750000Y-57250000D02*
X173750000Y-63000000D01*
X171000000Y-54500000D02*
X173750000Y-57250000D01*
X171000000Y-44250000D02*
X171000000Y-54500000D01*
D16*
X113250000Y-62100000D02*
X113274990Y-62124990D01*
X113250000Y-44250000D02*
X113250000Y-62100000D01*
X121500000Y-62370000D02*
X121475010Y-62394990D01*
X121500000Y-44250000D02*
X121500000Y-62370000D01*
M02*
